<?xml version="1.0" encoding="UTF-8" standalone="no"?>
<!-- Created with Inkscape (http://www.inkscape.org/) -->

<svg
   width="210mm"
   height="297mm"
   viewBox="0 0 210 297"
   version="1.1"
   id="svg5"
   xml:space="preserve"
   inkscape:export-filename="Fraga_WebPic.svg"
   inkscape:export-xdpi="96"
   inkscape:export-ydpi="96"
   xmlns:inkscape="http://www.inkscape.org/namespaces/inkscape"
   xmlns:sodipodi="http://sodipodi.sourceforge.net/DTD/sodipodi-0.dtd"
   xmlns="http://www.w3.org/2000/svg"
   xmlns:svg="http://www.w3.org/2000/svg"><sodipodi:namedview
     id="namedview7"
     pagecolor="#ffffff"
     bordercolor="#000000"
     borderopacity="0.25"
     inkscape:showpageshadow="2"
     inkscape:pageopacity="0.0"
     inkscape:pagecheckerboard="0"
     inkscape:deskcolor="#d1d1d1"
     inkscape:document-units="mm"
     showgrid="false" /><defs
     id="defs2" /><g
     inkscape:label="Layer 1"
     inkscape:groupmode="layer"
     id="layer1"><path
       style="fill:#000000;stroke-width:0.264583"
       d="m 54.494905,238.05094 c -0.175044,-2.08792 -0.935923,-4.05765 -1.731984,-4.48369 -0.295162,-0.15797 -0.842143,-0.28721 -1.215512,-0.28721 -0.650838,0 -0.678852,0.0634 -0.678852,1.53693 0,0.94177 -0.150428,1.73581 -0.388461,2.05052 -0.369673,0.48875 -0.389063,0.4752 -0.400926,-0.28016 -0.01201,-0.76459 -0.520716,-1.97205 -0.529478,-1.25677 -0.0066,0.53641 -0.698033,0.38051 -1.571252,-0.35425 -0.504436,-0.42445 -0.81405,-0.93355 -0.81405,-1.33853 0,-0.35946 -0.09771,-0.59317 -0.217131,-0.51936 -0.119423,0.0738 -0.595673,-0.096 -1.058334,-0.37737 -0.739729,-0.44986 -0.841202,-0.65165 -0.841202,-1.67279 0,-1.01926 0.13747,-1.2941 1.124479,-2.24812 0.618464,-0.59779 2.196042,-1.82484 3.50573,-2.72677 1.309687,-0.90194 3.155156,-2.23302 4.101042,-2.95796 1.547942,-1.18636 2.816902,-1.8558 8.407199,-4.43518 1.592566,-0.73481 2.931983,-1.25251 6.185244,-2.39064 1.070262,-0.37443 1.860298,-0.90248 2.778125,-1.85689 1.357829,-1.41194 2.952608,-2.3239 4.080709,-2.33352 0.822018,-0.007 1.720842,-0.90608 1.98963,-1.99019 0.160933,-0.64909 2.393406,-5.93284 2.597376,-6.14737 0.0324,-0.0341 0.64618,1.08556 1.36396,2.48809 0.71778,1.40253 1.70281,2.97657 2.18896,3.49787 0.85185,0.91344 0.89751,0.92922 1.25876,0.43518 0.45187,-0.61798 0.29647,-1.69138 -0.59004,-4.07558 -0.82173,-2.20996 -0.81372,-2.52023 0.0594,-2.30108 0.59063,0.14824 3.59725,2.06686 6.709,4.28122 1.18814,0.8455 1.68731,0.72535 1.87872,-0.45221 0.18957,-1.16627 1.15694,-2.77326 2.00324,-3.32778 0.60041,-0.3934 0.75559,-0.3568 2.94664,0.69495 1.27207,0.61062 2.848633,1.21078 3.503483,1.33369 1.40739,0.26416 7.74961,-0.35074 9.45885,-0.91707 0.61846,-0.20492 1.12448,-0.27962 1.12448,-0.16599 0,0.46356 -3.44073,3.44358 -5.31992,4.60759 -2.41041,1.49305 -5.64511,2.9288 -7.899923,3.50646 -1.84732,0.47326 -3.39045,0.35864 -5.96245,-0.44288 -2.7852,-0.86796 -4.10105,-0.4874 -4.10105,1.18607 0,1.60527 0.96937,2.58671 8.20209,8.30428 4.136043,3.26959 7.092963,6.13297 8.192793,7.93363 0.46664,0.76398 0.93309,1.38906 1.03656,1.38906 0.28633,0 4.37566,-8.79073 5.41555,-11.64167 1.14635,-3.14279 1.3679,-3.99398 1.8834,-7.23599 0.41317,-2.59842 0.74552,-3.61192 1.18442,-3.61192 0.40004,0 1.60186,2.70927 1.60186,3.61108 0,1.53143 2.478,3.48563 5.82083,4.59043 2.52296,0.83383 4.47217,1.84356 4.97848,2.57895 0.93949,1.36454 1.35879,1.65495 2.38948,1.65495 0.55988,0 2.61371,0.47904 4.56407,1.06453 1.95035,0.5855 4.73673,1.37574 6.19193,1.7561 2.96825,0.77583 4.15128,1.46423 7.37348,4.29056 1.14499,1.00432 2.44895,1.93134 2.89769,2.06004 l 0.81588,0.23399 -0.99792,1.10459 -0.99793,1.10458 0.9445,-0.15327 0.94451,-0.15327 v 1.22524 c 0,0.67389 -0.10741,1.22525 -0.2387,1.22525 -0.13128,0 -0.37285,0.38484 -0.53682,0.8552 -0.29276,0.83979 -1.76895,2.58438 -2.1868,2.58438 -0.11697,0 -0.21268,-0.29347 -0.21268,-0.65215 0,-0.80541 -0.97732,-1.45434 -1.22362,-0.81247 -0.0866,0.22565 -0.0794,0.82609 0.0159,1.33432 l 0.17336,0.92405 h -2.00292 c -1.90453,0 -2.01553,-0.0332 -2.25995,-0.67607 -0.14137,-0.37184 -0.60011,-1.41363 -1.01941,-2.3151 -1.52144,-3.27097 -1.84767,-4.07871 -2.43014,-6.01687 -1.23521,-4.11016 -2.59012,-6.33779 -3.85481,-6.33779 -0.32799,0 -0.65838,0.10037 -0.7342,0.22305 -0.12709,0.20564 0.91027,3.29807 2.6322,7.84674 0.7009,1.8515 1.44318,4.39678 1.44318,4.94871 0,0.16097 -0.23813,0.0772 -0.52917,-0.18621 -0.46086,-0.41707 -0.52917,-0.42438 -0.52917,-0.0566 0,0.73481 -0.58139,0.82071 -1.08855,0.16082 -0.26772,-0.34835 -0.80444,-1.58587 -1.1927,-2.75003 -0.90452,-2.71215 -1.91549,-5.01958 -2.11281,-4.82226 -0.0846,0.0846 0.3993,1.84771 1.0754,3.91795 0.67609,2.07025 1.19336,4.07314 1.14948,4.45086 -0.0676,0.58161 -0.19446,0.67461 -0.82866,0.60728 -0.57024,-0.0605 -0.78273,0.0499 -0.89076,0.46302 -0.13702,0.52398 -0.32132,0.54252 -5.39204,0.54252 h -5.25018 l -0.51237,-1.65885 c -0.2818,-0.91238 -0.70169,-2.66855 -0.93309,-3.90261 -0.55208,-2.94432 -1.8891,-7.18855 -2.50361,-7.94743 -0.33368,-0.41208 -0.63807,-0.54456 -0.9639,-0.41953 -0.42849,0.16443 -0.46098,0.44062 -0.32422,2.7561 0.141,2.38711 0.32851,3.57115 1.38293,8.73244 0.21638,1.05917 0.39341,2.04143 0.39341,2.18282 0,0.41785 -42.20226,0.34474 -42.518556,-0.0737 -0.54166,-0.71652 -4.202517,-10.40878 -4.821894,-12.76614 -0.391065,-1.48841 -1.225156,-2.74647 -2.021686,-3.04931 -1.166829,-0.44363 -2.210679,-0.30297 -2.905098,0.39145 -0.843244,0.84324 -0.821018,1.33009 0.07817,1.71233 0.400182,0.17011 0.927833,0.58313 1.172558,0.91781 0.793657,1.0854 3.113771,5.59049 3.498851,6.79391 0.206142,0.64422 0.742572,2.22239 1.192062,3.50706 0.449493,1.28466 0.817258,2.44552 0.817258,2.57969 0,0.14438 -3.92554,0.24393 -9.618918,0.24393 h -9.618918 z m 64.106985,0.65306 c 0,-0.34663 -0.11906,-0.70382 -0.26458,-0.79375 -0.15776,-0.0975 -0.26458,0.22294 -0.26458,0.79375 0,0.5708 0.10682,0.89125 0.26458,0.79375 0.14552,-0.0899 0.26458,-0.44713 0.26458,-0.79375 z m 25.93318,-1.19063 c 0.0905,0 0.35715,0.38695 0.59253,0.8599 l 0.42795,0.85989 0.0169,-0.95979 c 0.0218,-1.23511 -0.53519,-1.74879 -1.44613,-1.33374 -0.43511,0.19825 -0.65362,0.5136 -0.65362,0.9433 0,0.35502 -0.0695,0.86359 -0.15452,1.13015 -0.085,0.26657 0.117,0.0382 0.44887,-0.50752 0.33188,-0.5457 0.67747,-0.99219 0.76799,-0.99219 z m -74.616512,-1.32292 c 0,-0.58208 -0.119063,-1.05833 -0.264583,-1.05833 -0.292725,0 -0.368192,1.66028 -0.08819,1.94028 0.30898,0.30898 0.352778,0.19948 0.352778,-0.88195 z m 1.851096,-1.32658 c -0.139025,-0.5163 -0.409498,-1.15306 -0.601051,-1.41502 -0.271849,-0.37178 -0.258521,-0.009 0.06073,1.6551 0.33825,1.76266 0.442236,2.00747 0.601053,1.41503 0.105621,-0.39401 0.07829,-1.13881 -0.06074,-1.65511 z m 44.061276,1.84416 c 0.21342,-0.34532 -0.34498,-1.04674 -0.83331,-1.04674 -0.44888,0 -0.47582,0.57657 -0.047,1.00541 0.39042,0.39042 0.65682,0.40292 0.88029,0.0413 z m -6.46604,-3.05604 c 0.44315,-0.47171 0.4961,-0.63654 0.2045,-0.63654 -0.21642,0 -0.7289,0.35009 -1.13884,0.77797 -0.64315,0.67131 -0.67119,0.75859 -0.2045,0.63654 0.29746,-0.0778 0.80994,-0.42787 1.13884,-0.77797 z M 70.068801,230.9335 c -0.517235,-1.00022 -0.943993,-1.27833 -0.943993,-0.61518 0,0.60466 1.119846,2.11572 1.258869,1.69865 0.0529,-0.15871 -0.08879,-0.64627 -0.314876,-1.08347 z m 65.731009,0.63919 c 0,-0.56429 -0.57583,-1.73224 -0.85405,-1.73224 -0.13197,0 -0.16294,0.26789 -0.0688,0.59532 0.0941,0.32742 0.22923,0.80367 0.30025,1.05833 0.15591,0.55908 0.62263,0.61799 0.62263,0.0786 z M 68.593898,228.3191 c -9.53e-4,-0.25466 -0.2383,-0.82021 -0.527424,-1.25677 -0.588758,-0.889 -0.70594,-0.45377 -0.2387,0.88656 0.31395,0.9006 0.768949,1.12046 0.766124,0.37021 z m 63.501752,-2.03491 c 0,-0.35521 -0.11907,-0.71942 -0.26459,-0.80936 -0.15436,-0.0954 -0.26458,0.17364 -0.26458,0.64584 0,0.44515 0.11906,0.80937 0.26458,0.80937 0.14552,0 0.26459,-0.29063 0.26459,-0.64585 z m 1.4831,-1.04798 c -0.21877,-0.5236 -0.52518,-0.95201 -0.6809,-0.95201 -0.36409,0 -0.0857,1.23572 0.47692,2.11667 0.59269,0.92808 0.73615,0.10899 0.20398,-1.16466 z m -51.384053,-0.37918 c 0.0751,-0.12151 0.003,-0.65729 -0.16106,-1.19063 -0.26077,-0.84964 -0.40131,-0.9697 -1.13516,-0.9697 -1.10887,0 -1.24427,0.18656 -0.78291,1.07873 0.54413,1.05225 1.71941,1.66364 2.07913,1.0816 z m -5.884395,-6.47983 c 0.232185,-0.42662 0.199996,-0.44939 -0.275545,-0.19489 -0.568288,0.30414 -1.882866,1.89331 -1.882866,2.27617 0,0.29605 1.819352,-1.45829 2.158411,-2.08128 z m 38.322838,0.73933 c 0,-1.09784 -0.10583,-1.50413 -0.42357,-1.62606 -0.88988,-0.34148 -1.25628,1.72745 -0.46146,2.60571 0.70341,0.77726 0.88503,0.57621 0.88503,-0.97965 z m -14.22135,2.26016 c -1.070263,-0.65256 -1.145773,-1.18889 -0.13229,-0.93971 0.99887,0.24559 1.96814,0.90658 1.77875,1.21301 -0.23624,0.38225 -0.69661,0.30583 -1.64646,-0.2733 z m -4.842993,-26.15715 c -1.36502,-0.87527 -4.21899,-3.80209 -4.21899,-4.32669 0,-0.19675 -0.24581,-0.56819 -0.54625,-0.82543 -0.78222,-0.66976 -0.55866,-1.35194 0.47588,-1.45212 1.03727,-0.10043 1.85105,-1.04756 2.05505,-2.3918 0.29351,-1.93404 0.90453,-4.18683 1.69475,-6.24852 1.22367,-3.19253 1.67892,-5.60275 1.57245,-8.32492 -0.0863,-2.20643 -0.14576,-2.42113 -0.88625,-3.20013 -1.30928,-1.37737 -2.65686,-1.92396 -5.02709,-2.03904 -1.80212,-0.0875 -2.24733,-0.0206 -2.99597,0.45047 -0.99935,0.62878 -0.99121,1.16033 0.0196,1.28065 0.37786,0.045 0.87743,0.37239 1.11017,0.7276 0.265,0.40444 0.67462,0.64584 1.09592,0.64584 1.52034,0 2.20357,1.05953 1.23328,1.91254 -0.25466,0.22388 -0.96904,0.66147 -1.5875,0.97242 -0.93609,0.47065 -1.12448,0.69447 -1.12448,1.33592 0,0.9767 -0.64715,1.21117 -2.02162,0.73245 -1.38448,-0.48221 -3.1851,-1.65441 -3.52931,-2.29756 -0.24558,-0.45887 -0.16606,-0.57539 0.6155,-0.90195 1.81768,-0.75948 2.28818,-2.40613 0.96668,-3.38316 -1.01096,-0.74744 -0.99532,-1.30271 0.092,-3.26546 1.18475,-2.13864 1.79505,-2.42066 4.37153,-2.0201 2.83761,0.44115 5.56858,1.82973 7.76505,3.94818 2.06779,1.99433 2.42497,2.78453 2.98462,6.603 0.585533,3.99501 0.531823,4.69674 -0.52882,6.90993 -0.50932,1.06278 -0.92604,2.19952 -0.92604,2.5261 0,0.79304 0.87083,1.56666 2.712763,2.40992 0.83632,0.38288 1.52058,0.73312 1.52058,0.77831 0,0.0452 -0.76344,0.4618 -1.69652,0.9258 -1.834573,0.91228 -4.008503,2.73182 -3.754643,3.14257 0.0863,0.13969 1.05416,0.58121 2.15072,0.98114 1.096573,0.39994 2.053233,0.82339 2.125913,0.941 0.20989,0.33961 -1.896143,0.80007 -3.265403,0.71394 l -1.24862,-0.0785 -0.0834,1.19063 -0.0834,1.19062 0.55676,-0.59531 c 0.6579,-0.70345 1.28025,-0.76799 1.51467,-0.1571 0.1126,0.29345 -0.11004,0.68678 -0.67394,1.19063 -0.46315,0.41382 -0.93597,0.75241 -1.0507,0.75241 -0.11474,0 -0.73794,-0.33941 -1.38489,-0.75425 z m -9.09468,-21.55743 c 0.17767,-0.46299 -0.3257,-1.76541 -0.68231,-1.76541 -0.40844,0 -0.60897,0.69737 -0.41862,1.4558 0.1761,0.70162 0.87507,0.89819 1.10093,0.30961 z m 21.332773,18.81917 c -0.54794,-0.54794 -0.36618,-1.2477 0.37223,-1.43303 0.72084,-0.18092 3.54527,0.33352 3.54135,0.64503 -0.002,0.18146 -2.80512,1.11936 -3.31826,1.11037 -0.1528,-0.003 -0.42069,-0.14774 -0.59532,-0.32237 z m -3.42131,-0.6596 c 0.25743,-0.0671 0.61462,-0.0627 0.79375,0.01 0.17913,0.0725 -0.0315,0.12736 -0.46806,0.12197 -0.43656,-0.005 -0.58312,-0.0647 -0.32569,-0.13178 z m -30.325674,-7.42342 c -0.202202,-1.2569 -0.845716,-2.18281 -1.517065,-2.18281 -1.054037,0 -1.242237,-1.55721 -0.72676,-6.01334 l 0.313031,-2.70604 0.719656,1.26007 c 0.983232,1.72158 1.534851,3.69985 1.835904,6.58412 0.24664,2.36296 0.135224,4.05019 -0.267454,4.05019 -0.108733,0 -0.269523,-0.44649 -0.357312,-0.99219 z m 31.511264,0.52346 c -0.25466,-0.0546 -0.46302,-0.27137 -0.46302,-0.48176 0,-0.28247 0.19029,-0.33766 0.7276,-0.21102 0.40018,0.0943 0.82477,0.25924 0.94353,0.36648 0.26359,0.23804 -0.56977,0.46313 -1.20811,0.3263 z m -35.747607,-7.45271 c -0.238795,-0.59681 -0.434172,-1.67241 -0.434172,-2.39022 0,-1.26725 0.419499,-2.65293 0.803147,-2.65293 0.301557,0 0.520101,1.49963 0.515718,3.5388 -0.0052,2.43853 -0.306167,2.95023 -0.884693,1.50435 z m 5.388863,-1.14054 c -0.373965,-1.02364 -1.060535,-4.10673 -1.060535,-4.76241 0,-0.25471 0.119063,-0.46311 0.264584,-0.46311 0.145521,0 0.264583,0.28377 0.264583,0.6306 0,0.40808 0.186725,0.67942 0.529167,0.76898 0.47738,0.12483 0.529167,0.36089 0.529167,2.4121 0,1.25055 -0.04788,2.27373 -0.106408,2.27373 -0.05853,0 -0.247777,-0.38695 -0.420558,-0.85989 z m 46.033134,-2.91042 c -0.005,-6.02283 -1.29585,-12.18789 -3.83536,-18.3224 -0.54217,-1.30968 -1.13092,-2.77268 -1.30832,-3.25109 -0.17741,-0.47842 -0.69706,-1.40116 -1.15478,-2.05053 l -0.83222,-1.18067 h -1.87718 -1.87717 l -1.50908,-1.43941 c -0.82999,-0.79168 -2.10107,-1.69707 -2.82463,-2.01198 -1.17525,-0.51149 -1.5836,-0.55233 -3.82909,-0.38292 -1.38245,0.10429 -3.797583,0.23424 -5.366963,0.28876 -3.57801,0.1243 -4.92172,0.64715 -6.77183,2.63497 -0.72581,0.77984 -1.73731,1.5924 -2.24776,1.80568 -0.62538,0.2613 -1.10755,0.73952 -1.47824,1.46614 -0.60545,1.18678 -1.06855,1.40043 -1.06855,0.49298 0,-0.51193 -0.1588,-0.42895 -1.26585,0.66146 -1.38873,1.36784 -1.62573,1.44472 -2.56217,0.83114 -1.29886,-0.85104 -2.25739,0.38354 -2.25739,2.90749 0,1.35369 -0.0467,1.44252 -1.442095,2.74121 -1.500791,1.39682 -1.620623,1.66294 -2.52829,5.6149 -0.183824,0.80036 -0.609417,2.16958 -0.945761,3.04271 -0.336346,0.87312 -0.679765,1.91492 -0.763153,2.3151 -0.116171,0.55749 -0.305089,0.72761 -0.808035,0.72761 -0.407093,0 -0.656418,0.15074 -0.656418,0.39687 0,0.52395 -0.429419,0.50928 -0.633151,-0.0216 -0.328031,-0.85483 -0.164429,-3.82759 0.245039,-4.45252 0.321662,-0.49092 0.352472,-0.85872 0.14883,-1.77663 -0.215386,-0.97085 -0.201427,-1.08286 0.08655,-0.69452 0.470664,0.6347 0.681894,0.58051 0.681894,-0.17492 0,-0.39103 -0.32322,-0.90991 -0.835101,-1.34063 -0.828492,-0.69713 -0.832682,-0.71319 -0.529168,-2.02808 0.168265,-0.72896 0.305936,-1.95555 0.305936,-2.72575 0,-2.27489 0.759632,-5.96252 1.581558,-7.67766 0.420981,-0.87848 0.8475,-2.12911 0.947816,-2.77919 0.228169,-1.47859 1.001774,-2.71333 2.660248,-4.24596 3.744751,-3.46061 7.506851,-5.66489 10.377711,-6.08048 1.56154,-0.22605 2.14394,-0.4127 4.17583,-1.33834 5.33249,-2.42923 13.090613,-1.11335 20.536163,3.48319 3.39369,2.09512 4.40826,3.20094 6.11158,6.66128 2.79544,5.679 3.97015,10.38806 4.9549,19.86262 0.28593,2.75096 0.58447,5.25916 0.66343,5.57376 0.0968,0.38553 -0.0753,0.80817 -0.52783,1.29646 -0.36928,0.39845 -0.8607,1.37559 -1.09205,2.17142 -0.23136,0.79583 -0.47173,1.44697 -0.53417,1.44697 -0.0624,0 -0.11449,-1.10133 -0.11568,-2.4474 z m -27.051483,-1.55098 c -0.46454,-0.26211 -0.6501,-1.02871 -0.249,-1.02871 0.1177,0 0.44513,0.17058 0.7276,0.37907 0.64795,0.47822 0.22797,1.04831 -0.4786,0.64964 z m 13.183133,-0.37179 c -0.89318,-0.82776 -0.80176,-1.39173 0.35158,-2.16897 1.02113,-0.68814 2.1548,-0.77592 3.01106,-0.23317 0.3223,0.2043 1.12178,0.45048 1.77663,0.54706 2.16349,0.31911 3.96875,0.92765 3.96875,1.33784 0,0.64101 -2.02708,0.5221 -2.38125,-0.13968 -0.40972,-0.76555 -1.04386,-0.64965 -1.35678,0.24797 -0.43866,1.25835 -2.52489,1.43268 -3.15073,0.26328 -0.15049,-0.28119 -0.50982,-0.51125 -0.79851,-0.51125 -0.42777,0 -0.49418,0.1224 -0.35888,0.66146 0.21138,0.84221 -0.14989,0.84066 -1.06187,-0.005 z m 8.57885,-5.18998 c -0.8516,-0.49102 -1.21847,-0.52021 -4.56406,-0.36309 l -3.63802,0.17085 v -0.64373 c 0,-0.52798 0.30422,-0.79351 1.69167,-1.47655 1.96445,-0.9671 3.95589,-1.40928 4.83743,-1.07412 0.87067,0.33103 3.52506,2.96874 3.52506,3.50291 0,0.59142 -0.70101,0.54742 -1.85208,-0.11627 z"
       id="path2323" /></g></svg>
